<svg xmlns="http://www.w3.org/2000/svg" version="1.1" viewBox="0.00 0.00 500.00 500.00">
<path fill="#ffffff" d="   M 202.05 427.31   C 135.57 416.35 80.01 372.12 52.61 311.19   Q 48.53 302.12 45.39 292.55   Q 38.54 271.75 36.74 252.24   Q 35.09 234.38 36.52 210.33   C 36.62 208.76 37.07 207.19 37.29 205.58   C 39.98 185.66 45.35 165.51 53.99 147.34   Q 81.25 90.02 136.81 57.62   Q 168.18 39.31 204.27 34.02   C 208.94 33.34 211.15 39.13 208.07 42.08   Q 206.91 43.20 204.11 43.67   Q 157.63 51.42 121.21 78.94   C 82.54 108.16 54.93 151.69 47.56 200.34   C 46.90 204.71 46.02 208.96 45.76 213.26   C 44.81 228.76 44.78 244.83 47.26 260.03   Q 55.15 308.38 84.89 347.07   C 103.79 371.66 129.56 391.01 157.83 404.15   C 175.53 412.38 192.08 416.52 212.30 419.59   C 220.12 420.77 228.18 420.43 236.27 420.69   C 240.29 420.82 243.58 422.74 242.32 427.21   C 241.71 429.39 239.78 429.97 237.57 429.98   C 228.95 430.03 220.05 430.43 211.51 428.92   Q 206.79 428.09 202.05 427.31   Z"/>
<path fill="#00abed" d="   M 382.92 159.03   C 364.38 119.21 326.94 88.78 285.75 74.49   Q 277.95 71.79 262.88 69.24   Q 257.34 68.31 250.57 67.83   C 243.83 67.36 237.15 66.28 230.33 67.29   C 223.99 68.23 217.79 68.13 211.45 69.36   C 208.01 70.03 204.40 70.32 201.23 71.05   Q 135.21 86.18 98.90 142.50   C 95.21 148.23 91.79 154.83 88.43 161.15   C 87.32 163.24 84.11 163.45 82.18 162.38   C 78.93 160.59 79.80 157.29 81.22 154.35   C 101.45 112.49 137.57 81.75 181.52 66.55   Q 191.63 63.05 208.15 60.25   Q 213.46 59.35 221.44 58.70   C 227.41 58.21 233.27 57.34 239.20 57.65   Q 253.04 58.37 258.49 58.98   Q 269.36 60.19 281.51 63.54   Q 291.08 66.19 300.40 70.04   Q 360.44 94.85 390.92 153.41   Q 392.67 156.75 392.32 159.74   C 392.16 161.09 390.81 162.29 389.47 162.65   Q 385.15 163.81 382.92 159.03   Z"/>
<path fill="#00abed" d="   M 197.57 455.93   C 161.02 449.55 126.05 433.79 97.00 410.70   Q 94.86 409.01 94.33 407.54   C 92.72 403.13 97.82 399.78 101.67 402.33   C 106.51 405.54 112.88 410.62 117.99 413.97   Q 149.01 434.31 185.30 442.85   C 192.17 444.47 198.35 446.13 205.69 446.97   C 211.01 447.58 216.20 448.71 221.47 448.83   Q 230.87 449.05 240.25 449.47   Q 253.62 450.06 273.26 446.64   C 371.61 429.48 444.46 348.71 452.70 249.24   Q 453.46 240.11 452.95 224.24   C 451.59 181.91 437.16 141.19 412.77 106.85   C 406.80 98.44 399.17 89.97 391.99 81.90   C 386.55 75.78 394.31 70.52 398.72 75.02   Q 438.47 115.59 454.57 171.88   C 457.33 181.50 459.60 192.01 460.60 202.02   C 461.03 206.31 462.14 210.58 462.29 214.68   Q 463.16 237.22 462.23 249.72   Q 457.83 308.96 426.45 356.48   C 389.98 411.71 332.84 448.72 267.21 457.61   C 259.04 458.71 249.96 458.66 241.27 459.10   Q 235.65 459.38 229.74 459.01   C 222.88 458.57 216.38 458.64 209.36 457.47   C 205.43 456.82 201.09 456.54 197.57 455.93   Z"/>
<path fill="#f5f5f5" d="   M 161.23 242.93   L 161.21 185.12   Q 161.21 184.29 160.38 184.28   L 156.27 184.20   A 0.69 0.67 -3.6 0 1 155.62 183.64   L 155.36 182.21   Q 155.25 181.55 155.92 181.51   Q 171.35 180.68 182.09 181.89   Q 190.52 182.84 193.79 189.59   C 197.34 196.93 195.06 210.53 185.72 212.74   A 0.88 0.88 0.0 0 0 185.21 214.12   Q 185.52 214.53 186.29 214.79   Q 198.26 218.87 197.70 231.76   C 197.30 240.87 188.36 246.61 180.00 246.68   Q 168.48 246.77 156.37 246.65   A 1.09 1.09 0.0 0 1 155.33 245.24   L 155.62 244.28   A 0.65 0.65 0.0 0 1 156.23 243.82   L 160.45 243.73   A 0.80 0.80 0.0 0 0 161.23 242.93   Z   M 164.68 184.81   L 164.50 211.41   A 0.61 0.61 0.0 0 0 165.10 212.03   L 177.41 212.11   A 14.46 11.94 0.4 0 0 191.96 200.28   L 191.98 196.34   A 14.46 11.94 0.4 0 0 177.61 184.29   L 165.30 184.21   A 0.61 0.61 0.0 0 0 164.68 184.81   Z   M 164.52 216.29   L 164.66 243.25   A 0.54 0.54 0.0 0 0 165.20 243.79   L 178.21 243.72   A 16.59 13.97 -0.3 0 0 194.73 229.66   L 194.73 229.56   A 16.59 13.97 -0.3 0 0 178.07 215.68   L 165.06 215.75   A 0.54 0.54 0.0 0 0 164.52 216.29   Z"/>
<path fill="#f5f5f5" d="   M 211.86 184.15   C 209.79 184.02 204.92 185.35 204.53 182.64   A 1.19 1.19 0.0 0 1 205.71 181.28   L 223.19 181.25   Q 223.89 181.24 223.85 181.94   L 223.76 183.63   Q 223.73 184.29 223.07 184.28   L 217.40 184.23   Q 216.01 184.21 216.01 185.60   L 216.02 242.50   Q 216.02 243.99 217.50 243.93   L 222.87 243.70   Q 223.57 243.67 223.60 244.37   L 223.67 245.91   Q 223.70 246.64 222.97 246.63   L 205.74 246.47   A 0.97 0.97 0.0 0 1 204.82 245.80   C 204.35 244.35 205.44 243.65 206.77 243.82   Q 209.28 244.14 211.79 243.84   Q 212.51 243.76 212.51 243.04   L 212.48 184.81   Q 212.48 184.19 211.86 184.15   Z"/>
<path fill="#f5f5f5" d="   M 275.74 243.34   Q 275.36 241.75 274.34 240.45   Q 262.50 225.26 250.71 210.13   A 0.83 0.82 49.5 0 0 249.49 210.03   L 242.60 216.55   A 4.32 4.29 68.4 0 0 241.25 219.71   L 241.40 241.81   A 1.94 1.93 90.0 0 0 243.31 243.73   L 248.39 243.77   A 1.48 1.39 -59.4 0 1 248.99 246.45   Q 248.83 246.55 248.13 246.55   Q 240.09 246.56 231.90 246.60   A 1.12 1.11 -9.0 0 1 230.84 245.84   Q 230.36 244.42 231.64 243.91   C 233.15 243.32 235.60 244.02 237.56 243.42   A 0.84 0.83 81.6 0 0 238.15 242.62   L 238.04 185.25   A 0.86 0.74 -89.3 0 0 237.32 184.39   L 232.05 184.20   A 1.29 1.28 -5.9 0 1 230.84 183.22   C 230.56 182.10 231.24 181.27 232.41 181.27   Q 240.06 181.25 247.70 181.22   Q 248.43 181.22 248.43 181.95   L 248.43 183.55   Q 248.43 184.24 247.74 184.26   C 245.64 184.33 241.18 183.40 241.43 186.85   C 242.03 195.03 241.51 203.74 241.48 211.79   A 0.84 0.83 68.4 0 0 242.89 212.40   Q 256.56 199.45 269.40 186.65   Q 270.38 185.67 270.47 184.89   Q 270.57 184.08 269.76 184.20   Q 268.19 184.45 266.98 183.55   A 1.22 1.21 -26.9 0 1 267.70 181.36   L 283.67 181.22   Q 284.38 181.21 284.34 181.92   L 284.25 183.73   A 0.70 0.70 0.0 0 1 283.44 184.38   C 279.67 183.79 277.02 183.91 274.09 186.69   Q 263.51 196.73 252.80 206.74   A 0.80 0.80 0.0 0 0 252.71 207.82   Q 265.92 224.65 279.44 241.64   Q 282.22 245.14 286.60 243.55   A 1.50 1.50 0.0 0 1 288.60 245.15   Q 288.38 246.89 286.68 246.71   C 281.89 246.19 276.62 246.47 271.84 246.68   A 0.97 0.97 0.0 0 1 270.86 245.44   L 271.19 244.26   A 0.74 0.74 0.0 0 1 271.96 243.73   L 275.14 244.03   A 0.56 0.56 0.0 0 0 275.74 243.34   Z"/>
<path fill="#f5f5f5" d="   M 339.41 243.21   L 339.51 233.51   Q 339.52 232.82 340.21 232.82   L 341.75 232.83   Q 342.68 232.83 342.68 233.75   L 342.78 246.07   A 0.61 0.61 0.0 0 1 342.17 246.68   L 296.43 246.66   A 0.70 0.70 0.0 0 1 295.73 245.92   L 295.82 244.32   A 0.67 0.67 0.0 0 1 296.57 243.69   C 299.18 244.03 302.78 244.78 302.77 240.94   Q 302.65 213.30 302.72 185.28   A 0.94 0.93 -89.4 0 0 301.81 184.34   L 296.66 184.26   A 0.85 0.85 0.0 0 1 295.84 183.49   L 295.70 181.95   Q 295.64 181.24 296.35 181.24   L 340.45 181.28   Q 341.11 181.28 341.10 181.95   L 341.01 194.62   Q 341.01 195.21 340.42 195.17   L 338.94 195.07   A 0.75 0.74 1.7 0 1 338.24 194.34   L 338.01 185.02   A 0.73 0.73 0.0 0 0 337.28 184.30   L 307.68 184.27   A 1.67 1.67 0.0 0 0 306.01 185.94   L 305.98 210.45   Q 305.98 211.92 307.45 211.93   L 337.06 212.16   Q 337.66 212.16 337.68 212.75   L 337.76 214.63   Q 337.79 215.30 337.12 215.30   L 307.47 215.28   A 1.50 1.50 0.0 0 0 305.97 216.78   L 305.93 242.21   A 1.54 1.53 0.2 0 0 307.46 243.74   L 338.79 243.83   A 0.63 0.62 -89.5 0 0 339.41 243.21   Z"/>
<path fill="#f5f5f5" d="   M 172.81 285.67   Q 180.53 289.47 188.78 284.56   A 0.86 0.86 0.0 0 1 189.72 284.59   Q 190.88 285.36 191.00 286.76   Q 191.05 287.37 190.45 287.53   Q 187.57 288.31 184.69 289.07   Q 176.77 291.17 170.10 287.43   C 163.86 283.94 162.59 277.81 162.81 270.92   C 163.26 257.01 178.21 252.76 189.57 257.66   Q 190.14 257.91 190.03 258.53   L 189.74 260.18   Q 189.62 260.84 189.00 260.59   Q 182.57 257.96 179.74 258.18   Q 167.42 259.13 166.56 269.91   C 166.07 275.98 166.93 282.78 172.81 285.67   Z"/>
<path fill="#f5f5f5" d="   M 216.30 280.73   C 215.78 273.85 203.25 274.04 199.12 269.62   C 196.11 266.41 196.08 260.08 200.71 257.75   Q 207.42 254.38 214.82 256.22   Q 216.79 256.71 217.90 258.48   A 1.09 1.09 0.0 0 1 216.71 260.12   C 212.12 258.94 208.40 257.12 203.20 259.31   Q 198.89 261.13 201.29 266.42   A 1.16 1.13 88.3 0 0 201.90 267.01   Q 205.62 268.52 213.95 271.54   C 222.61 274.68 221.61 286.85 212.61 289.13   Q 204.30 291.24 196.41 287.16   Q 195.90 286.90 196.17 286.39   L 196.99 284.86   Q 197.30 284.28 197.88 284.59   C 202.64 287.08 208.97 288.79 213.65 285.66   Q 216.53 283.74 216.30 280.73   Z"/>
<path fill="#f5f5f5" d="   M 231.30 258.97   L 231.25 270.28   A 0.54 0.54 0.0 0 0 231.78 270.83   L 241.93 270.87   A 0.98 0.97 -13.6 0 1 242.77 271.38   Q 243.29 272.30 242.49 272.80   Q 242.12 273.03 241.45 273.02   Q 236.72 272.91 232.00 273.10   Q 231.36 273.13 231.36 273.76   L 231.25 285.85   A 1.62 1.62 0.0 0 0 232.86 287.48   L 247.25 287.56   A 0.99 0.99 0.0 0 1 248.06 289.12   Q 247.47 289.97 245.99 289.95   Q 237.21 289.86 228.60 289.67   A 0.64 0.64 0.0 0 1 227.97 289.03   L 228.00 256.42   A 0.59 0.59 0.0 0 1 228.58 255.83   L 245.96 255.77   A 0.72 0.71 3.5 0 1 246.67 256.57   Q 246.54 257.70 245.26 257.73   Q 238.57 257.85 231.90 258.32   Q 231.30 258.37 231.30 258.97   Z"/>
<path fill="#f5f5f5" d="   M 290.32 286.02   C 291.29 285.67 291.99 285.00 292.97 284.46   Q 293.45 284.19 293.78 284.63   Q 295.33 286.72 293.25 287.65   C 280.82 293.18 267.28 288.38 266.65 273.50   C 265.99 257.65 280.75 252.40 293.50 257.59   A 0.75 0.73 15.2 0 1 293.95 258.36   L 293.71 260.25   Q 293.62 261.00 292.94 260.65   C 284.93 256.49 272.09 257.30 270.69 268.49   C 269.84 275.36 270.34 283.39 277.81 286.14   Q 283.91 288.40 290.32 286.02   Z"/>
<path fill="#f5f5f5" d="   M 319.75 286.56   C 324.23 284.70 325.30 281.48 325.26 276.59   Q 325.16 266.60 325.24 256.73   A 0.76 0.75 88.8 0 1 325.95 255.98   L 328.14 255.84   Q 328.73 255.81 328.72 256.39   Q 328.55 267.95 328.51 279.50   C 328.48 287.26 319.57 290.64 313.02 289.62   Q 302.56 287.99 302.28 277.25   Q 302.01 266.97 301.96 256.69   Q 301.96 256.00 302.65 255.99   L 305.21 255.96   Q 306.01 255.95 306.01 256.75   Q 305.90 266.79 305.80 276.78   Q 305.73 284.48 311.72 286.65   Q 315.90 288.16 319.75 286.56   Z"/>
<path fill="#feffff" d="   M 403.48 269.49   C 391.70 317.63 360.62 357.89 317.74 380.82   Q 300.29 390.15 275.99 396.22   Q 238.03 405.70 199.79 397.11   C 135.81 382.73 85.94 335.24 69.19 271.30   C 68.05 266.93 67.71 262.56 73.75 262.79   C 75.91 262.88 77.00 264.37 77.60 266.43   C 79.58 273.13 81.49 280.18 83.89 286.37   C 104.83 340.47 148.19 375.88 204.52 388.58   Q 208.73 389.53 215.60 390.14   C 220.56 390.59 225.93 391.60 230.49 391.76   C 251.12 392.51 270.88 388.73 290.29 382.07   C 343.59 363.79 381.72 320.79 394.98 266.25   C 396.38 260.48 405.54 261.05 403.48 269.49   Z"/>
<path fill="#00abed" d="   M 181.66 360.91   Q 174.67 358.23 172.73 357.24   C 167.71 354.69 170.70 346.06 177.00 348.94   C 217.32 367.38 260.96 365.29 299.88 344.29   Q 336.45 324.56 355.36 288.09   C 356.69 285.52 359.16 283.35 362.08 285.35   C 365.57 287.74 364.43 291.41 362.59 294.72   C 344.18 327.83 312.96 354.87 275.96 364.94   Q 264.59 368.03 252.93 369.73   C 229.12 373.22 204.09 369.52 181.66 360.91   Z"/>
</svg>